<svg xmlns="http://www.w3.org/2000/svg" width="1em" height="1em" viewBox="0 0 24 24" fill="none" stroke="currentColor"
	 stroke-width="2" stroke-linecap="round" stroke-linejoin="round">
	<defs>
		<linearGradient id="a">
			<stop offset="0%" stop-color="#3f5efb"/>
			<stop offset="100%" stop-color="#fc466b"/>
		</linearGradient>
	</defs>
	<path stroke="url(#a)"
		  d="M3 7a3 3 0 0 1 3-3h12a3 3 0 0 1 3 3v2a3 3 0 0 1-3 3H6a3 3 0 0 1-3-3zm0 8a3 3 0 0 1 3-3h12a3 3 0 0 1 3 3v2a3 3 0 0 1-3 3H6a3 3 0 0 1-3-3zm4-7v.01M7 16v.01"/>
</svg>
